# xmcd
#
# Track frame offsets: 
#        150
#        14682
#        30901
#        48271
#        73391
#        94178
#        110600
#        125491
#        178530
#        193604
#        206430
#        217416
#        249659
#        265592
#        280363
#
# Disc length: 4101 seconds
#
# Revision: 3
# Processed by: cddbd v1.5.2PL0 Copyright (c) Steve Scherf et al.
# Submitted via: ExactAudioCopyFreeDBPlugin 1.0
#
DISCID=e510030f
DTITLE=Various Artist - Stax Does the Beatles
DYEAR=2008
DGENRE=Soul
TTITLE0=Otis Redding - Day Tripper (alternate take)
TTITLE1=David Porter - Help!
TTITLE2=Booker T. and the M.G.'s - Got to Get You Into My Life (previous
TTITLE2=ly unreleased)
TTITLE3=Steve Cropper - With a Little Help from My Friends
TTITLE4=Carla Thomas - Yesterday (live)
TTITLE5=Booker T. and the M.G.'s - Eleanor Rigby
TTITLE6=The Mar-Keys - Let it Be
TTITLE7=Isaac Hayes - Something
TTITLE8=The Bar-Kays - Yesterday
TTITLE9=Booker T. and the M.G.'s - Michelle
TTITLE10=Reggie Milner - And I Love Her
TTITLE11=The Bar-Kays - With a Little Help from My Friends (previously
TTITLE11=unreleased)
TTITLE12=Booker T. and the M.G.'s - Lady Madonna
TTITLE13=John Gary Williams - My Sweet Lord
TTITLE14=The Bar-Kays - Hey Jude
EXTD=Label: Concord Music Group, Inc. - Stax\n0888072303904 YEAR: 2008
EXTT0=
EXTT1=
EXTT2=
EXTT3=
EXTT4=
EXTT5=
EXTT6=
EXTT7=
EXTT8=
EXTT9=
EXTT10=
EXTT11=
EXTT12=
EXTT13=
EXTT14=
PLAYORDER=
